# xmcd
#
# Track frame offsets: 
#        150
#        12034
#        23843
#        34930
#        52411
#        66862
#        85472
#        100865
#        115951
#        129730
#
# Disc length: 1878 seconds
#
# Revision: 0
# Processed by: cddbd v1.5.2PL0 Copyright (c) Steve Scherf et al.
# Submitted via: ExactAudioCopy v1.0b1
#
DISCID=8907540a
DTITLE=The Vic Willis Trio - Stars Of The Grand Ole Opry
DYEAR=1981
DGENRE=Country
TTITLE0=I Couldn't Live Without Your Love
TTITLE1=A Woman Like You
TTITLE2=Especially You
TTITLE3=Old Flames Can't Hold A Candle To You
TTITLE4=If I Said You Had A Beautiful Body (Would You Hold It Against 
TTITLE4=Me)
TTITLE5=American Trilogy
TTITLE6=Shenandoah
TTITLE7=Colorado
TTITLE8=Last Cheater's Waltz
TTITLE9=The Homecoming
EXTD=
EXTT0=
EXTT1=
EXTT2=
EXTT3=
EXTT4=
EXTT5=
EXTT6=
EXTT7=
EXTT8=
EXTT9=
PLAYORDER=
